<?xml version="1.0" standalone="no"?>
 <!DOCTYPE svg PUBLIC "-//W3C//DTD SVG 1.1//EN" 
 "http://www.w3.org/Graphics/SVG/1.1/DTD/svg11.dtd"> 
<svg xmlns="http://www.w3.org/2000/svg" version="1.1" 
    width="7.47014cm" height="5.88518cm" viewBox="0 0 29410 23170 ">
<title>SVG Picture created as battery-protector-v2-brd.svg date 2018/07/21 17:41:36 </title>
  <desc>Picture generated by PCBNEW </desc>
<g style="fill:#000000; fill-opacity:1;stroke:#000000; stroke-opacity:1;
stroke-linecap:round; stroke-linejoin:round; "
 transform="translate(0 0) scale(1 1)">
</g>
<g style="fill:#000000; fill-opacity:0.0; 
stroke:#000000; stroke-width:-0.000393701; stroke-opacity:1; 
stroke-linecap:round; stroke-linejoin:round;">
</g>
<g style="fill:#840000; fill-opacity:0.0; 
stroke:#840000; stroke-width:-0.000393701; stroke-opacity:1; 
stroke-linecap:round; stroke-linejoin:round;">
</g>
<g style="fill:#840000; fill-opacity:0.0; 
stroke:#840000; stroke-width:0; stroke-opacity:1; 
stroke-linecap:round; stroke-linejoin:round;">
</g>
<g style="fill:#840000; fill-opacity:1.0; 
stroke:#840000; stroke-width:0; stroke-opacity:1; 
stroke-linecap:round; stroke-linejoin:round;">
<polyline style="fill-rule:evenodd;"
points="22065,14905
22065,14255
22617,14255
22617,14905
22065,14905
" /> 
<polyline style="fill-rule:evenodd;"
points="22853,14905
22853,14255
23404,14255
23404,14905
22853,14905
" /> 
<polyline style="fill-rule:evenodd;"
points="22794,15791
22794,15338
23266,15338
23266,15791
22794,15791
" /> 
<polyline style="fill-rule:evenodd;"
points="22203,15791
22203,15338
22676,15338
22676,15791
22203,15791
" /> 
<polyline style="fill-rule:evenodd;"
points="22794,16578
22794,16125
23266,16125
23266,16578
22794,16578
" /> 
<polyline style="fill-rule:evenodd;"
points="22203,16578
22203,16125
22676,16125
22676,16578
22203,16578
" /> 
<polyline style="fill-rule:evenodd;"
points="22223,10368
22223,9738
22735,9738
22735,10368
22223,10368
" /> 
<polyline style="fill-rule:evenodd;"
points="23522,10368
23522,9738
24034,9738
24034,10368
23522,10368
" /> 
<polyline style="fill-rule:evenodd;"
points="6682,16273
6682,14856
7725,14856
7725,16273
6682,16273
" /> 
<polyline style="fill-rule:evenodd;"
points="9398,16273
9398,14856
10441,14856
10441,16273
9398,16273
" /> 
<circle cx="13286.5" cy="9407.48" r="748.031" /> 
</g>
<g style="fill:#840000; fill-opacity:1.0; 
stroke:#840000; stroke-width:39.3701; stroke-opacity:1; 
stroke-linecap:round; stroke-linejoin:round;">
</g>
<g style="fill:#840000; fill-opacity:1.0; 
stroke:#840000; stroke-width:0; stroke-opacity:1; 
stroke-linecap:round; stroke-linejoin:round;">
<circle cx="13286.5" cy="11005.9" r="748.031" /> 
</g>
<g style="fill:#840000; fill-opacity:1.0; 
stroke:#840000; stroke-width:39.3701; stroke-opacity:1; 
stroke-linecap:round; stroke-linejoin:round;">
</g>
<g style="fill:#840000; fill-opacity:1.0; 
stroke:#840000; stroke-width:0; stroke-opacity:1; 
stroke-linecap:round; stroke-linejoin:round;">
<circle cx="13286.5" cy="7407.48" r="748.031" /> 
</g>
<g style="fill:#840000; fill-opacity:1.0; 
stroke:#840000; stroke-width:39.3701; stroke-opacity:1; 
stroke-linecap:round; stroke-linejoin:round;">
</g>
<g style="fill:#840000; fill-opacity:1.0; 
stroke:#840000; stroke-width:0; stroke-opacity:1; 
stroke-linecap:round; stroke-linejoin:round;">
<circle cx="13286.5" cy="13005.9" r="748.031" /> 
</g>
<g style="fill:#840000; fill-opacity:1.0; 
stroke:#840000; stroke-width:39.3701; stroke-opacity:1; 
stroke-linecap:round; stroke-linejoin:round;">
</g>
<g style="fill:#840000; fill-opacity:1.0; 
stroke:#840000; stroke-width:0; stroke-opacity:1; 
stroke-linecap:round; stroke-linejoin:round;">
<circle cx="2853.39" cy="20879.9" r="964.567" /> 
</g>
<g style="fill:#840000; fill-opacity:1.0; 
stroke:#840000; stroke-width:39.3701; stroke-opacity:1; 
stroke-linecap:round; stroke-linejoin:round;">
</g>
<g style="fill:#840000; fill-opacity:1.0; 
stroke:#840000; stroke-width:0; stroke-opacity:1; 
stroke-linecap:round; stroke-linejoin:round;">
<circle cx="2853.39" cy="7100.39" r="964.567" /> 
</g>
<g style="fill:#840000; fill-opacity:1.0; 
stroke:#840000; stroke-width:39.3701; stroke-opacity:1; 
stroke-linecap:round; stroke-linejoin:round;">
</g>
<g style="fill:#840000; fill-opacity:1.0; 
stroke:#840000; stroke-width:0; stroke-opacity:1; 
stroke-linecap:round; stroke-linejoin:round;">
<circle cx="26475.4" cy="7100.39" r="964.567" /> 
</g>
<g style="fill:#840000; fill-opacity:1.0; 
stroke:#840000; stroke-width:39.3701; stroke-opacity:1; 
stroke-linecap:round; stroke-linejoin:round;">
</g>
<g style="fill:#840000; fill-opacity:1.0; 
stroke:#840000; stroke-width:0; stroke-opacity:1; 
stroke-linecap:round; stroke-linejoin:round;">
<circle cx="26475.4" cy="20879.9" r="964.567" /> 
</g>
<g style="fill:#840000; fill-opacity:1.0; 
stroke:#840000; stroke-width:39.3701; stroke-opacity:1; 
stroke-linecap:round; stroke-linejoin:round;">
</g>
<g style="fill:#840000; fill-opacity:1.0; 
stroke:#840000; stroke-width:0; stroke-opacity:1; 
stroke-linecap:round; stroke-linejoin:round;">
<polyline style="fill-rule:evenodd;"
points="1455,14781
1455,13954
2282,13954
2282,14781
1455,14781
" /> 
</g>
<g style="fill:#840000; fill-opacity:1.0; 
stroke:#840000; stroke-width:826.772; stroke-opacity:1; 
stroke-linecap:round; stroke-linejoin:round;">
</g>
<g style="fill:#840000; fill-opacity:0.0; 
stroke:#840000; stroke-width:826.772; stroke-opacity:1; 
stroke-linecap:round; stroke-linejoin:round;">
<path d="M1869 15368
L1869 15368
" />
<path d="M1869 16368
L1869 16368
" />
<path d="M1869 17368
L1869 17368
" />
</g>
<g style="fill:#840000; fill-opacity:0.0; 
stroke:#840000; stroke-width:933.071; stroke-opacity:1; 
stroke-linecap:round; stroke-linejoin:round;">
<path d="M15916 12903
L17475 12903
" />
<path d="M19026 12903
L20585 12903
" />
</g>
<g style="fill:#840000; fill-opacity:1.0; 
stroke:#840000; stroke-width:0; stroke-opacity:1; 
stroke-linecap:round; stroke-linejoin:round;">
<circle cx="15341.6" cy="5722.44" r="452.756" /> 
</g>
<g style="fill:#840000; fill-opacity:1.0; 
stroke:#840000; stroke-width:39.3701; stroke-opacity:1; 
stroke-linecap:round; stroke-linejoin:round;">
</g>
<g style="fill:#840000; fill-opacity:1.0; 
stroke:#840000; stroke-width:0; stroke-opacity:1; 
stroke-linecap:round; stroke-linejoin:round;">
<circle cx="21160.5" cy="5722.44" r="452.756" /> 
</g>
<g style="fill:#840000; fill-opacity:1.0; 
stroke:#840000; stroke-width:39.3701; stroke-opacity:1; 
stroke-linecap:round; stroke-linejoin:round;">
</g>
<g style="fill:#840000; fill-opacity:1.0; 
stroke:#840000; stroke-width:933.071; stroke-opacity:1; 
stroke-linecap:round; stroke-linejoin:round;">
</g>
<g style="fill:#840000; fill-opacity:0.0; 
stroke:#840000; stroke-width:933.071; stroke-opacity:1; 
stroke-linecap:round; stroke-linejoin:round;">
<path d="M6380 12903
L7940 12903
" />
<path d="M9491 12903
L11050 12903
" />
</g>
<g style="fill:#840000; fill-opacity:1.0; 
stroke:#840000; stroke-width:0; stroke-opacity:1; 
stroke-linecap:round; stroke-linejoin:round;">
<circle cx="5806.15" cy="5722.44" r="452.756" /> 
</g>
<g style="fill:#840000; fill-opacity:1.0; 
stroke:#840000; stroke-width:39.3701; stroke-opacity:1; 
stroke-linecap:round; stroke-linejoin:round;">
</g>
<g style="fill:#840000; fill-opacity:1.0; 
stroke:#840000; stroke-width:0; stroke-opacity:1; 
stroke-linecap:round; stroke-linejoin:round;">
<circle cx="11625" cy="5722.44" r="452.756" /> 
</g>
<g style="fill:#840000; fill-opacity:1.0; 
stroke:#840000; stroke-width:39.3701; stroke-opacity:1; 
stroke-linecap:round; stroke-linejoin:round;">
</g>
<g style="fill:#840000; fill-opacity:1.0; 
stroke:#840000; stroke-width:0; stroke-opacity:1; 
stroke-linecap:round; stroke-linejoin:round;">
<polyline style="fill-rule:evenodd;"
points="26652,13192
27341,13192
27341,13527
26652,13527
26652,13192
" /> 
<polyline style="fill-rule:evenodd;"
points="26652,12937
27341,12937
27341,13271
26652,13271
26652,12937
" /> 
<polyline style="fill-rule:evenodd;"
points="26652,12681
27341,12681
27341,13015
26652,13015
26652,12681
" /> 
<polyline style="fill-rule:evenodd;"
points="26652,12425
27341,12425
27341,12759
26652,12759
26652,12425
" /> 
<polyline style="fill-rule:evenodd;"
points="26652,12169
27341,12169
27341,12503
26652,12503
26652,12169
" /> 
<circle cx="26987.3" cy="13832.7" r="355.906" /> 
</g>
<g style="fill:#840000; fill-opacity:1.0; 
stroke:#840000; stroke-width:39.3701; stroke-opacity:1; 
stroke-linecap:round; stroke-linejoin:round;">
</g>
<g style="fill:#840000; fill-opacity:1.0; 
stroke:#840000; stroke-width:0; stroke-opacity:1; 
stroke-linecap:round; stroke-linejoin:round;">
<circle cx="26987.3" cy="11864.2" r="355.906" /> 
</g>
<g style="fill:#840000; fill-opacity:1.0; 
stroke:#840000; stroke-width:39.3701; stroke-opacity:1; 
stroke-linecap:round; stroke-linejoin:round;">
</g>
<g style="fill:#840000; fill-opacity:1.0; 
stroke:#840000; stroke-width:0; stroke-opacity:1; 
stroke-linecap:round; stroke-linejoin:round;">
<circle cx="28050.2" cy="14226.4" r="433.071" /> 
</g>
<g style="fill:#840000; fill-opacity:1.0; 
stroke:#840000; stroke-width:39.3701; stroke-opacity:1; 
stroke-linecap:round; stroke-linejoin:round;">
</g>
<g style="fill:#840000; fill-opacity:1.0; 
stroke:#840000; stroke-width:0; stroke-opacity:1; 
stroke-linecap:round; stroke-linejoin:round;">
<circle cx="28050.2" cy="11470.5" r="433.071" /> 
</g>
<g style="fill:#840000; fill-opacity:1.0; 
stroke:#840000; stroke-width:39.3701; stroke-opacity:1; 
stroke-linecap:round; stroke-linejoin:round;">
</g>
<g style="fill:#840000; fill-opacity:1.0; 
stroke:#840000; stroke-width:0; stroke-opacity:1; 
stroke-linecap:round; stroke-linejoin:round;">
<polyline style="fill-rule:evenodd;"
points="28434,13616
27666,13616
27666,12868
28434,12868
28434,13616
" /> 
<polyline style="fill-rule:evenodd;"
points="28434,12828
27666,12828
27666,12080
28434,12080
28434,12828
" /> 
<polyline style="fill-rule:evenodd;"
points="28434,14423
27666,14423
27666,13675
28434,13675
28434,14423
" /> 
<polyline style="fill-rule:evenodd;"
points="28434,12021
27666,12021
27666,11273
28434,11273
28434,12021
" /> 
<polyline style="fill-rule:evenodd;"
points="13621,17581
14132,17581
14132,17935
13621,17935
13621,17581
" /> 
<polyline style="fill-rule:evenodd;"
points="13621,18171
14132,18171
14132,18526
13621,18526
13621,18171
" /> 
<polyline style="fill-rule:evenodd;"
points="12833,17553
13345,17553
13345,17907
12833,17907
12833,17553
" /> 
<polyline style="fill-rule:evenodd;"
points="12833,18143
13345,18143
13345,18498
12833,18498
12833,18143
" /> 
<polyline style="fill-rule:evenodd;"
points="12558,18498
12046,18498
12046,18143
12558,18143
12558,18498
" /> 
<polyline style="fill-rule:evenodd;"
points="12558,17907
12046,17907
12046,17553
12558,17553
12558,17907
" /> 
<circle cx="5648.67" cy="21076.8" r="334.646" /> 
</g>
<g style="fill:#840000; fill-opacity:1.0; 
stroke:#840000; stroke-width:39.3701; stroke-opacity:1; 
stroke-linecap:round; stroke-linejoin:round;">
</g>
<g style="fill:#840000; fill-opacity:1.0; 
stroke:#840000; stroke-width:0; stroke-opacity:1; 
stroke-linecap:round; stroke-linejoin:round;">
<circle cx="6987.25" cy="21076.8" r="334.646" /> 
</g>
<g style="fill:#840000; fill-opacity:1.0; 
stroke:#840000; stroke-width:39.3701; stroke-opacity:1; 
stroke-linecap:round; stroke-linejoin:round;">
</g>
<g style="fill:#840000; fill-opacity:1.0; 
stroke:#840000; stroke-width:0; stroke-opacity:1; 
stroke-linecap:round; stroke-linejoin:round;">
<polyline style="fill-rule:evenodd;"
points="22361,20742
22361,20230
22715,20230
22715,20742
22361,20742
" /> 
<polyline style="fill-rule:evenodd;"
points="22951,20742
22951,20230
23306,20230
23306,20742
22951,20742
" /> 
<polyline style="fill-rule:evenodd;"
points="23306,19442
23306,19954
22951,19954
22951,19442
23306,19442
" /> 
<polyline style="fill-rule:evenodd;"
points="22715,19442
22715,19954
22361,19954
22361,19442
22715,19442
" /> 
<polyline style="fill-rule:evenodd;"
points="22361,19167
22361,18655
22715,18655
22715,19167
22361,19167
" /> 
<polyline style="fill-rule:evenodd;"
points="22951,19167
22951,18655
23306,18655
23306,19167
22951,19167
" /> 
<polyline style="fill-rule:evenodd;"
points="26988,16096
27461,16096
27461,16530
26988,16530
26988,16096
" /> 
<polyline style="fill-rule:evenodd;"
points="26988,17710
27461,17710
27461,18144
26988,18144
26988,17710
" /> 
<polyline style="fill-rule:evenodd;"
points="27616,17710
28089,17710
28089,18144
27616,18144
27616,17710
" /> 
<polyline style="fill-rule:evenodd;"
points="27616,16096
28089,16096
28089,16530
27616,16530
27616,16096
" /> 
<circle cx="9940.01" cy="21076.8" r="374.016" /> 
</g>
<g style="fill:#840000; fill-opacity:1.0; 
stroke:#840000; stroke-width:39.3701; stroke-opacity:1; 
stroke-linecap:round; stroke-linejoin:round;">
</g>
<g style="fill:#840000; fill-opacity:1.0; 
stroke:#840000; stroke-width:0; stroke-opacity:1; 
stroke-linecap:round; stroke-linejoin:round;">
<circle cx="10727.4" cy="21076.8" r="374.016" /> 
</g>
<g style="fill:#840000; fill-opacity:1.0; 
stroke:#840000; stroke-width:39.3701; stroke-opacity:1; 
stroke-linecap:round; stroke-linejoin:round;">
</g>
<g style="fill:#840000; fill-opacity:1.0; 
stroke:#840000; stroke-width:0; stroke-opacity:1; 
stroke-linecap:round; stroke-linejoin:round;">
<circle cx="9152.61" cy="21076.8" r="374.016" /> 
</g>
<g style="fill:#840000; fill-opacity:1.0; 
stroke:#840000; stroke-width:39.3701; stroke-opacity:1; 
stroke-linecap:round; stroke-linejoin:round;">
</g>
<g style="fill:#840000; fill-opacity:1.0; 
stroke:#840000; stroke-width:0; stroke-opacity:1; 
stroke-linecap:round; stroke-linejoin:round;">
<circle cx="8325.83" cy="21076.8" r="374.016" /> 
</g>
<g style="fill:#840000; fill-opacity:1.0; 
stroke:#840000; stroke-width:39.3701; stroke-opacity:1; 
stroke-linecap:round; stroke-linejoin:round;">
</g>
<g style="fill:#840000; fill-opacity:1.0; 
stroke:#840000; stroke-width:0; stroke-opacity:1; 
stroke-linecap:round; stroke-linejoin:round;">
<circle cx="11554.2" cy="21076.8" r="374.016" /> 
</g>
<g style="fill:#840000; fill-opacity:1.0; 
stroke:#840000; stroke-width:39.3701; stroke-opacity:1; 
stroke-linecap:round; stroke-linejoin:round;">
</g>
<g style="fill:#840000; fill-opacity:1.0; 
stroke:#840000; stroke-width:0; stroke-opacity:1; 
stroke-linecap:round; stroke-linejoin:round;">
<polyline style="fill-rule:evenodd;"
points="16582,18982
16582,18604
17240,18604
17240,18982
16582,18982
" /> 
<polyline style="fill-rule:evenodd;"
points="16582,19297
16582,18919
17240,18919
17240,19297
16582,19297
" /> 
<polyline style="fill-rule:evenodd;"
points="16582,19612
16582,19234
17240,19234
17240,19612
16582,19612
" /> 
<polyline style="fill-rule:evenodd;"
points="16582,19927
16582,19549
17240,19549
17240,19927
16582,19927
" /> 
<polyline style="fill-rule:evenodd;"
points="16582,20241
16582,19863
17240,19863
17240,20241
16582,20241
" /> 
<polyline style="fill-rule:evenodd;"
points="16582,20556
16582,20178
17240,20178
17240,20556
16582,20556
" /> 
<polyline style="fill-rule:evenodd;"
points="16582,20871
16582,20493
17240,20493
17240,20871
16582,20871
" /> 
<polyline style="fill-rule:evenodd;"
points="16582,21186
16582,20808
17240,20808
17240,21186
16582,21186
" /> 
<polyline style="fill-rule:evenodd;"
points="17310,21914
17310,21256
17688,21256
17688,21914
17310,21914
" /> 
<polyline style="fill-rule:evenodd;"
points="17625,21914
17625,21256
18003,21256
18003,21914
17625,21914
" /> 
<polyline style="fill-rule:evenodd;"
points="17940,21914
17940,21256
18318,21256
18318,21914
17940,21914
" /> 
<polyline style="fill-rule:evenodd;"
points="18255,21914
18255,21256
18633,21256
18633,21914
18255,21914
" /> 
<polyline style="fill-rule:evenodd;"
points="18569,21914
18569,21256
18947,21256
18947,21914
18569,21914
" /> 
<polyline style="fill-rule:evenodd;"
points="18884,21914
18884,21256
19262,21256
19262,21914
18884,21914
" /> 
<polyline style="fill-rule:evenodd;"
points="19199,21914
19199,21256
19577,21256
19577,21914
19199,21914
" /> 
<polyline style="fill-rule:evenodd;"
points="19514,21914
19514,21256
19892,21256
19892,21914
19514,21914
" /> 
<polyline style="fill-rule:evenodd;"
points="19962,21186
19962,20808
20620,20808
20620,21186
19962,21186
" /> 
<polyline style="fill-rule:evenodd;"
points="19962,20871
19962,20493
20620,20493
20620,20871
19962,20871
" /> 
<polyline style="fill-rule:evenodd;"
points="19962,20556
19962,20178
20620,20178
20620,20556
19962,20556
" /> 
<polyline style="fill-rule:evenodd;"
points="19962,20241
19962,19863
20620,19863
20620,20241
19962,20241
" /> 
<polyline style="fill-rule:evenodd;"
points="19962,19927
19962,19549
20620,19549
20620,19927
19962,19927
" /> 
<polyline style="fill-rule:evenodd;"
points="19962,19612
19962,19234
20620,19234
20620,19612
19962,19612
" /> 
<polyline style="fill-rule:evenodd;"
points="19962,19297
19962,18919
20620,18919
20620,19297
19962,19297
" /> 
<polyline style="fill-rule:evenodd;"
points="19962,18982
19962,18604
20620,18604
20620,18982
19962,18982
" /> 
<polyline style="fill-rule:evenodd;"
points="19514,18534
19514,17876
19892,17876
19892,18534
19514,18534
" /> 
<polyline style="fill-rule:evenodd;"
points="19199,18534
19199,17876
19577,17876
19577,18534
19199,18534
" /> 
<polyline style="fill-rule:evenodd;"
points="18884,18534
18884,17876
19262,17876
19262,18534
18884,18534
" /> 
<polyline style="fill-rule:evenodd;"
points="18569,18534
18569,17876
18947,17876
18947,18534
18569,18534
" /> 
<polyline style="fill-rule:evenodd;"
points="18255,18534
18255,17876
18633,17876
18633,18534
18255,18534
" /> 
<polyline style="fill-rule:evenodd;"
points="17940,18534
17940,17876
18318,17876
18318,18534
17940,18534
" /> 
<polyline style="fill-rule:evenodd;"
points="17625,18534
17625,17876
18003,17876
18003,18534
17625,18534
" /> 
<polyline style="fill-rule:evenodd;"
points="17310,18534
17310,17876
17688,17876
17688,18534
17310,18534
" /> 
<polyline style="fill-rule:evenodd;"
points="12656,20723
12656,20172
13463,20172
13463,20723
12656,20723
" /> 
<polyline style="fill-rule:evenodd;"
points="12656,21981
12656,21430
13463,21430
13463,21981
12656,21981
" /> 
<polyline style="fill-rule:evenodd;"
points="14684,21981
14684,21430
15491,21430
15491,21981
14684,21981
" /> 
<polyline style="fill-rule:evenodd;"
points="14684,20723
14684,20172
15491,20172
15491,20723
14684,20723
" /> 
<polyline style="fill-rule:evenodd;"
points="22369,11834
22369,11421
22943,11421
22943,11834
22369,11834
" /> 
<polyline style="fill-rule:evenodd;"
points="22369,12208
22369,11795
22943,11795
22943,12208
22369,12208
" /> 
<polyline style="fill-rule:evenodd;"
points="22369,12582
22369,12169
22943,12169
22943,12582
22369,12582
" /> 
<polyline style="fill-rule:evenodd;"
points="23235,12582
23235,12169
23810,12169
23810,12582
23235,12582
" /> 
<polyline style="fill-rule:evenodd;"
points="23235,11834
23235,11421
23810,11421
23810,11834
23235,11834
" /> 
<polyline style="fill-rule:evenodd;"
points="10963,15446
10963,15171
11298,15171
11298,15446
10963,15446
" /> 
<polyline style="fill-rule:evenodd;"
points="10963,15702
10963,15427
11298,15427
11298,15702
10963,15702
" /> 
<polyline style="fill-rule:evenodd;"
points="10963,15958
10963,15683
11298,15683
11298,15958
10963,15958
" /> 
<polyline style="fill-rule:evenodd;"
points="12065,15683
12065,15958
11731,15958
11731,15683
12065,15683
" /> 
<polyline style="fill-rule:evenodd;"
points="12065,15427
12065,15702
11731,15702
11731,15427
12065,15427
" /> 
<polyline style="fill-rule:evenodd;"
points="12065,15171
12065,15446
11731,15446
11731,15171
12065,15171
" /> 
<polyline style="fill-rule:evenodd;"
points="11325,15958
11325,15683
11778,15683
11778,15958
11325,15958
" /> 
<polyline style="fill-rule:evenodd;"
points="11239,15702
11239,15171
11790,15171
11790,15702
11239,15702
" /> 
<polyline style="fill-rule:evenodd;"
points="11239,15702
11239,15171
11790,15171
11790,15702
11239,15702
" /> 
</g>
<g style="fill:#000000; fill-opacity:1.0; 
stroke:#000000; stroke-width:0; stroke-opacity:1; 
stroke-linecap:round; stroke-linejoin:round;">
</g>
<g style="fill:#848484; fill-opacity:1.0; 
stroke:#848484; stroke-width:0; stroke-opacity:1; 
stroke-linecap:round; stroke-linejoin:round;">
</g>
<g style="fill:#848484; fill-opacity:1.0; 
stroke:#848484; stroke-width:19.685; stroke-opacity:1; 
stroke-linecap:round; stroke-linejoin:round;">
</g>
<g style="fill:#848484; fill-opacity:0.0; 
stroke:#848484; stroke-width:19.685; stroke-opacity:1; 
stroke-linecap:round; stroke-linejoin:round;">
<path d="M22046 14234
L23424 14234
" />
<path d="M22046 14234
L22046 14923
" />
<path d="M23424 14923
L23424 14234
" />
<path d="M23424 14923
L22046 14923
" />
<path d="M23286 15820
L22184 15820
" />
<path d="M23286 15820
L23286 15309
" />
<path d="M22184 15309
L22184 15820
" />
<path d="M22184 15309
L23286 15309
" />
<path d="M23286 16608
L22184 16608
" />
<path d="M23286 16608
L23286 16096
" />
<path d="M22184 16096
L22184 16608
" />
<path d="M22184 16096
L23286 16096
" />
<path d="M22203 9600
L24054 9600
" />
<path d="M24054 9600
L24054 10505
" />
<path d="M24054 10505
L22203 10505
" />
<path d="M22203 9600
L22203 10505
" />
</g>
<g style="fill:#848484; fill-opacity:0.0; 
stroke:#848484; stroke-width:59.0551; stroke-opacity:1; 
stroke-linecap:round; stroke-linejoin:round;">
<circle cx="2853.39" cy="20879.9" r="1771.65" /> 
<circle cx="2853.39" cy="7100.39" r="1771.65" /> 
<circle cx="26475.4" cy="7100.39" r="1771.65" /> 
<circle cx="26475.4" cy="20879.9" r="1771.65" /> 
</g>
<g style="fill:#848484; fill-opacity:0.0; 
stroke:#848484; stroke-width:19.685; stroke-opacity:1; 
stroke-linecap:round; stroke-linejoin:round;">
<path d="M1160 13659
L1160 18068
" />
<path d="M1160 18068
L2577 18068
" />
<path d="M2577 18068
L2577 13659
" />
<path d="M2577 13659
L1160 13659
" />
<path d="M14152 17561
L14152 18545
" />
<path d="M14152 17561
L13601 17561
" />
<path d="M13601 18545
L14152 18545
" />
<path d="M13601 18545
L13601 17561
" />
<path d="M13365 17533
L13365 18517
" />
<path d="M13365 17533
L12814 17533
" />
<path d="M12814 18517
L13365 18517
" />
<path d="M12814 18517
L12814 17533
" />
<path d="M12026 18517
L12026 17533
" />
<path d="M12026 18517
L12577 18517
" />
<path d="M12577 17533
L12026 17533
" />
<path d="M12577 17533
L12577 18517
" />
<path d="M22341 20210
L23325 20210
" />
<path d="M22341 20210
L22341 20761
" />
<path d="M23325 20761
L23325 20210
" />
<path d="M23325 20761
L22341 20761
" />
<path d="M23325 19974
L22341 19974
" />
<path d="M23325 19974
L23325 19423
" />
<path d="M22341 19423
L22341 19974
" />
<path d="M22341 19423
L23325 19423
" />
<path d="M22341 18635
L23325 18635
" />
<path d="M22341 18635
L22341 19187
" />
<path d="M23325 19187
L23325 18635
" />
<path d="M23325 19187
L22341 19187
" />
<path d="M22341 11293
L23837 11293
" />
<path d="M23837 11293
L23837 12710
" />
<path d="M23837 12710
L22341 12710
" />
<path d="M22341 12710
L22341 11293
" />
</g>
<g style="fill:#000000; fill-opacity:0.0; 
stroke:#000000; stroke-width:19.685; stroke-opacity:1; 
stroke-linecap:round; stroke-linejoin:round;">
</g>
<g style="fill:#C2C200; fill-opacity:0.0; 
stroke:#C2C200; stroke-width:19.685; stroke-opacity:1; 
stroke-linecap:round; stroke-linejoin:round;">
</g>
<g style="fill:#C2C200; fill-opacity:0.0; 
stroke:#C2C200; stroke-width:118.11; stroke-opacity:1; 
stroke-linecap:round; stroke-linejoin:round;">
<path d="M18137 19572
L18137 20050
L18165 20106
L18193 20134
L18249 20162
L18362 20162
L18418 20134
L18446 20106
L18474 20050
L18474 19572
" />
<path d="M19093 20106
L19065 20134
L18981 20162
L18924 20162
L18840 20134
L18784 20078
L18756 20022
L18727 19909
L18727 19825
L18756 19712
L18784 19656
L18840 19600
L18924 19572
L18981 19572
L19065 19600
L19093 19628
" />
<path d="M12513 8239
L12316 8239
" />
<path d="M12316 8548
L12316 7958
L12597 7958
" />
<path d="M12822 7958
L12822 8436
L12850 8492
L12878 8520
L12934 8548
L13047 8548
L13103 8520
L13131 8492
L13159 8436
L13159 7958
" />
<path d="M13413 8520
L13497 8548
L13637 8548
L13694 8520
L13722 8492
L13750 8436
L13750 8379
L13722 8323
L13694 8295
L13637 8267
L13525 8239
L13469 8211
L13441 8183
L13413 8126
L13413 8070
L13441 8014
L13469 7986
L13525 7958
L13666 7958
L13750 7986
" />
<path d="M14003 8239
L14200 8239
" />
<path d="M14284 8548
L14003 8548
L14003 7958
L14284 7958
" />
<path d="M9433 20528
L9518 20556
L9658 20556
L9715 20528
L9743 20500
L9771 20444
L9771 20387
L9743 20331
L9715 20303
L9658 20275
L9546 20247
L9490 20219
L9461 20190
L9433 20134
L9433 20078
L9461 20022
L9490 19994
L9546 19965
L9686 19965
L9771 19994
" />
<path d="M9968 19965
L10108 20556
L10221 20134
L10333 20556
L10474 19965
" />
<path d="M26953 17378
L27037 17406
L27178 17406
L27234 17378
L27262 17350
L27290 17294
L27290 17238
L27262 17181
L27234 17153
L27178 17125
L27065 17097
L27009 17069
L26981 17041
L26953 16985
L26953 16928
L26981 16872
L27009 16844
L27065 16816
L27206 16816
L27290 16844
" />
<path d="M27487 16816
L27628 17406
L27740 16985
L27853 17406
L27994 16816
" />
<path d="M12344 15832
L12344 15241
L12541 15663
L12738 15241
L12738 15832
" />
<path d="M13131 15241
L13244 15241
L13300 15269
L13356 15325
L13384 15438
L13384 15635
L13356 15747
L13300 15803
L13244 15832
L13131 15832
L13075 15803
L13019 15747
L12991 15635
L12991 15438
L13019 15325
L13075 15269
L13131 15241
" />
<path d="M13609 15803
L13694 15832
L13834 15832
L13891 15803
L13919 15775
L13947 15719
L13947 15663
L13919 15607
L13891 15579
L13834 15550
L13722 15522
L13666 15494
L13637 15466
L13609 15410
L13609 15354
L13637 15297
L13666 15269
L13722 15241
L13862 15241
L13947 15269
" />
<path d="M14397 15522
L14200 15522
" />
<path d="M14200 15832
L14200 15241
L14481 15241
" />
<path d="M14706 15522
L14903 15522
" />
<path d="M14987 15832
L14706 15832
L14706 15241
L14987 15241
" />
<path d="M15156 15241
L15494 15241
" />
<path d="M15325 15832
L15325 15241
" />
<path d="M7395 17013
L7395 16422
L7535 16422
L7619 16450
L7676 16507
L7704 16563
L7732 16675
L7732 16760
L7704 16872
L7676 16928
L7619 16985
L7535 17013
L7395 17013
" />
<path d="M7985 17013
L7985 16422
" />
<path d="M8379 16422
L8491 16422
L8547 16450
L8604 16507
L8632 16619
L8632 16816
L8604 16928
L8547 16985
L8491 17013
L8379 17013
L8323 16985
L8266 16928
L8238 16816
L8238 16619
L8266 16507
L8323 16450
L8379 16422
" />
<path d="M8885 17013
L8885 16422
L9026 16422
L9110 16450
L9166 16507
L9194 16563
L9222 16675
L9222 16760
L9194 16872
L9166 16928
L9110 16985
L9026 17013
L8885 17013
" />
<path d="M9476 16703
L9672 16703
" />
<path d="M9757 17013
L9476 17013
L9476 16422
L9757 16422
" />
<path d="M13694 21343
L13413 21343
L13413 20753
" />
<path d="M13891 21034
L14087 21034
" />
<path d="M14172 21343
L13891 21343
L13891 20753
L14172 20753
" />
<path d="M14425 21343
L14425 20753
L14565 20753
L14650 20781
L14706 20837
L14734 20893
L14762 21006
L14762 21090
L14734 21203
L14706 21259
L14650 21315
L14565 21343
L14425 21343
" />
</g>
<g style="fill:#C2C200; fill-opacity:0.0; 
stroke:#C2C200; stroke-width:39.3701; stroke-opacity:1; 
stroke-linecap:round; stroke-linejoin:round;">
<path d="M22341 14824
L22341 14336
" />
<path d="M23128 14824
L22341 14824
" />
<path d="M23128 14336
L23128 14824
" />
<path d="M22341 14336
L23128 14336
" />
<path d="M22420 15407
L23050 15407
" />
<path d="M23050 15407
L23050 15722
" />
<path d="M23050 15722
L22420 15722
" />
<path d="M22420 15722
L22420 15407
" />
<path d="M22420 16194
L23050 16194
" />
<path d="M23050 16194
L23050 16509
" />
<path d="M23050 16509
L22420 16509
" />
<path d="M22420 16509
L22420 16194
" />
<path d="M23227 10053
L23424 10053
" />
<path d="M23227 10210
L22991 10053
" />
<path d="M23227 9895
L23227 10210
" />
<path d="M22991 10053
L23227 9895
" />
<path d="M22991 10053
L22991 10269
" />
<path d="M22991 10053
L22991 9836
" />
<path d="M22833 10053
L22991 10053
" />
<path d="M22577 10407
L22577 9698
" />
<path d="M23680 10407
L22577 10407
" />
<path d="M23680 9698
L23680 10407
" />
<path d="M22577 9698
L23680 9698
" />
<path d="M1619 13868
L2369 13868
" />
<path d="M2369 13868
L2369 17868
" />
<path d="M2369 17868
L1369 17868
" />
<path d="M1369 17868
L1369 14118
" />
<path d="M1369 14118
L1619 13868
" />
<path d="M13719 17738
L14034 17738
" />
<path d="M13719 18368
L13719 17738
" />
<path d="M14034 18368
L13719 18368
" />
<path d="M14034 17738
L14034 18368
" />
<path d="M12932 17710
L13247 17710
" />
<path d="M12932 18340
L12932 17710
" />
<path d="M13247 18340
L12932 18340
" />
<path d="M13247 17710
L13247 18340
" />
<path d="M12459 18340
L12144 18340
" />
<path d="M12459 17710
L12459 18340
" />
<path d="M12144 17710
L12459 17710
" />
<path d="M12144 18340
L12144 17710
" />
<path d="M22518 20643
L22518 20328
" />
<path d="M23148 20643
L22518 20643
" />
<path d="M23148 20328
L23148 20643
" />
<path d="M22518 20328
L23148 20328
" />
<path d="M23148 19541
L23148 19856
" />
<path d="M22518 19541
L23148 19541
" />
<path d="M22518 19856
L22518 19541
" />
<path d="M23148 19856
L22518 19856
" />
<path d="M22518 19068
L22518 18753
" />
<path d="M23148 19068
L22518 19068
" />
<path d="M23148 18753
L23148 19068
" />
<path d="M22518 18753
L23148 18753
" />
<path d="M22735 11647
L22991 11391
" />
<path d="M23443 11391
L22991 11391
" />
<path d="M22735 11647
L22735 12612
" />
<path d="M23443 12612
L22735 12612
" />
<path d="M23443 11391
L23443 12612
" />
</g>
<g style="fill:#C2C200; fill-opacity:0.0; 
stroke:#C2C200; stroke-width:59.0551; stroke-opacity:1; 
stroke-linecap:round; stroke-linejoin:round;">
<path d="M23691 14758
L23466 14758
" />
<path d="M23578 14758
L23578 14365
L23541 14421
L23503 14458
L23466 14477
" />
<path d="M23935 14365
L23972 14365
L24010 14383
L24028 14402
L24047 14440
L24066 14515
L24066 14608
L24047 14683
L24028 14721
L24010 14740
L23972 14758
L23935 14758
L23897 14740
L23878 14721
L23860 14683
L23841 14608
L23841 14515
L23860 14440
L23878 14402
L23897 14383
L23935 14365
" />
<path d="M24403 14496
L24403 14758
" />
<path d="M24235 14496
L24235 14702
L24253 14740
L24291 14758
L24347 14758
L24385 14740
L24403 14721
" />
<path d="M24722 14552
L24591 14552
" />
<path d="M24591 14758
L24591 14365
L24778 14365
" />
<path d="M23485 15743
L23260 15743
" />
<path d="M23372 15743
L23372 15349
L23335 15405
L23297 15443
L23260 15461
" />
<path d="M23822 15480
L23822 15743
" />
<path d="M23653 15480
L23653 15686
L23672 15724
L23710 15743
L23766 15743
L23803 15724
L23822 15705
" />
<path d="M24141 15536
L24010 15536
" />
<path d="M24010 15743
L24010 15349
L24197 15349
" />
</g>
<g style="fill:#C2C200; fill-opacity:0.0; 
stroke:#C2C200; stroke-width:29.5276; stroke-opacity:1; 
stroke-linecap:round; stroke-linejoin:round;">
<path d="M22715 15607
L22709 15612
L22693 15618
L22681 15618
L22664 15612
L22653 15601
L22648 15590
L22642 15567
L22642 15550
L22648 15528
L22653 15517
L22664 15505
L22681 15500
L22693 15500
L22709 15505
L22715 15511
" />
<path d="M22760 15511
L22766 15505
L22777 15500
L22805 15500
L22816 15505
L22822 15511
L22828 15522
L22828 15534
L22822 15550
L22754 15618
L22828 15618
" />
</g>
<g style="fill:#C2C200; fill-opacity:0.0; 
stroke:#C2C200; stroke-width:59.0551; stroke-opacity:1; 
stroke-linecap:round; stroke-linejoin:round;">
<path d="M23485 16530
L23260 16530
" />
<path d="M23372 16530
L23372 16136
L23335 16193
L23297 16230
L23260 16249
" />
<path d="M23822 16267
L23822 16530
" />
<path d="M23653 16267
L23653 16474
L23672 16511
L23710 16530
L23766 16530
L23803 16511
L23822 16492
" />
<path d="M24141 16324
L24010 16324
" />
<path d="M24010 16530
L24010 16136
L24197 16136
" />
</g>
<g style="fill:#C2C200; fill-opacity:0.0; 
stroke:#C2C200; stroke-width:29.5276; stroke-opacity:1; 
stroke-linecap:round; stroke-linejoin:round;">
<path d="M22715 16394
L22709 16400
L22693 16405
L22681 16405
L22664 16400
L22653 16388
L22648 16377
L22642 16355
L22642 16338
L22648 16315
L22653 16304
L22664 16293
L22681 16287
L22693 16287
L22709 16293
L22715 16298
" />
<path d="M22754 16287
L22828 16287
L22788 16332
L22805 16332
L22816 16338
L22822 16343
L22828 16355
L22828 16383
L22822 16394
L22816 16400
L22805 16405
L22771 16405
L22760 16400
L22754 16394
" />
</g>
<g style="fill:#C2C200; fill-opacity:0.0; 
stroke:#C2C200; stroke-width:59.0551; stroke-opacity:1; 
stroke-linecap:round; stroke-linejoin:round;">
<path d="M21891 9237
L21947 9256
L21966 9275
L21985 9312
L21985 9368
L21966 9406
L21947 9425
L21910 9443
L21760 9443
L21760 9050
L21891 9050
L21929 9068
L21947 9087
L21966 9125
L21966 9162
L21947 9200
L21929 9218
L21891 9237
L21760 9237
" />
<path d="M22135 9331
L22322 9331
" />
<path d="M22097 9443
L22229 9050
L22360 9443
" />
<path d="M22435 9050
L22660 9050
" />
<path d="M22547 9443
L22547 9050
" />
<path d="M22979 9050
L22791 9050
L22772 9237
L22791 9218
L22829 9200
L22922 9200
L22960 9218
L22979 9237
L22997 9275
L22997 9368
L22979 9406
L22960 9425
L22922 9443
L22829 9443
L22791 9425
L22772 9406
" />
<path d="M23335 9181
L23335 9443
" />
<path d="M23241 9031
L23147 9312
L23391 9312
" />
<path d="M23747 9068
L23710 9050
L23653 9050
L23597 9068
L23560 9106
L23541 9143
L23522 9218
L23522 9275
L23541 9350
L23560 9387
L23597 9425
L23653 9443
L23691 9443
L23747 9425
L23766 9406
L23766 9275
L23691 9275
" />
<path d="M23897 9050
L23991 9443
L24066 9162
L24141 9443
L24235 9050
" />
<path d="M24497 9050
L24497 9331
L24478 9387
L24441 9425
L24385 9443
L24347 9443
" />
<path d="M1653 15999
L1934 15999
L1991 16018
L2028 16055
L2047 16111
L2047 16149
" />
<path d="M2047 15605
L2047 15830
" />
<path d="M2047 15718
L1653 15718
L1709 15755
L1747 15793
L1766 15830
" />
<path d="M13792 19408
L14055 19408
" />
<path d="M13642 19501
L13923 19595
L13923 19351
" />
<path d="M13661 19239
L13661 18977
L14055 19145
" />
<path d="M13661 18752
L13661 18714
L13680 18677
L13698 18658
L13736 18639
L13811 18620
L13905 18620
L13980 18639
L14017 18658
L14036 18677
L14055 18714
L14055 18752
L14036 18789
L14017 18808
L13980 18827
L13905 18845
L13811 18845
L13736 18827
L13698 18808
L13680 18789
L13661 18752
" />
</g>
<g style="fill:#C2C200; fill-opacity:0.0; 
stroke:#C2C200; stroke-width:29.5276; stroke-opacity:1; 
stroke-linecap:round; stroke-linejoin:round;">
<path d="M13948 18079
L13873 18132
" />
<path d="M13948 18169
L13790 18169
L13790 18109
L13798 18094
L13805 18087
L13820 18079
L13843 18079
L13858 18087
L13865 18094
L13873 18109
L13873 18169
" />
<path d="M13948 17929
L13948 18019
" />
<path d="M13948 17974
L13790 17974
L13813 17989
L13828 18004
L13835 18019
" />
</g>
<g style="fill:#C2C200; fill-opacity:0.0; 
stroke:#C2C200; stroke-width:59.0551; stroke-opacity:1; 
stroke-linecap:round; stroke-linejoin:round;">
<path d="M13267 19342
L13267 19567
" />
<path d="M13267 19455
L12874 19455
L12930 19492
L12967 19530
L12986 19567
" />
<path d="M12874 19098
L12874 19061
L12892 19023
L12911 19005
L12949 18986
L13023 18967
L13117 18967
L13192 18986
L13230 19005
L13248 19023
L13267 19061
L13267 19098
L13248 19136
L13230 19155
L13192 19173
L13117 19192
L13023 19192
L12949 19173
L12911 19155
L12892 19136
L12874 19098
" />
<path d="M13267 18798
L12874 18798
" />
<path d="M13117 18761
L13267 18648
" />
<path d="M13005 18648
L13155 18798
" />
</g>
<g style="fill:#C2C200; fill-opacity:0.0; 
stroke:#C2C200; stroke-width:29.5276; stroke-opacity:1; 
stroke-linecap:round; stroke-linejoin:round;">
<path d="M13160 18051
L13085 18104
" />
<path d="M13160 18141
L13003 18141
L13003 18081
L13010 18066
L13018 18059
L13033 18051
L13055 18051
L13070 18059
L13078 18066
L13085 18081
L13085 18141
" />
<path d="M13018 17991
L13010 17984
L13003 17969
L13003 17931
L13010 17916
L13018 17909
L13033 17901
L13048 17901
L13070 17909
L13160 17999
L13160 17901
" />
</g>
<g style="fill:#C2C200; fill-opacity:0.0; 
stroke:#C2C200; stroke-width:59.0551; stroke-opacity:1; 
stroke-linecap:round; stroke-linejoin:round;">
<path d="M12480 19342
L12480 19567
" />
<path d="M12480 19455
L12086 19455
L12142 19492
L12180 19530
L12199 19567
" />
<path d="M12086 19098
L12086 19061
L12105 19023
L12124 19005
L12161 18986
L12236 18967
L12330 18967
L12405 18986
L12442 19005
L12461 19023
L12480 19061
L12480 19098
L12461 19136
L12442 19155
L12405 19173
L12330 19192
L12236 19192
L12161 19173
L12124 19155
L12105 19136
L12086 19098
" />
<path d="M12480 18798
L12086 18798
" />
<path d="M12330 18761
L12480 18648
" />
<path d="M12217 18648
L12367 18798
" />
</g>
<g style="fill:#C2C200; fill-opacity:0.0; 
stroke:#C2C200; stroke-width:29.5276; stroke-opacity:1; 
stroke-linecap:round; stroke-linejoin:round;">
<path d="M12373 18051
L12298 18104
" />
<path d="M12373 18141
L12215 18141
L12215 18081
L12223 18066
L12230 18059
L12245 18051
L12268 18051
L12283 18059
L12290 18066
L12298 18081
L12298 18141
" />
<path d="M12215 17999
L12215 17901
L12275 17954
L12275 17931
L12283 17916
L12290 17909
L12305 17901
L12343 17901
L12358 17909
L12365 17916
L12373 17931
L12373 17976
L12365 17991
L12358 17999
" />
</g>
<g style="fill:#C2C200; fill-opacity:0.0; 
stroke:#C2C200; stroke-width:59.0551; stroke-opacity:1; 
stroke-linecap:round; stroke-linejoin:round;">
<path d="M5324 20664
L5193 20476
" />
<path d="M5099 20664
L5099 20270
L5249 20270
L5286 20289
L5305 20308
L5324 20345
L5324 20401
L5305 20439
L5286 20458
L5249 20476
L5099 20476
" />
<path d="M5399 20701
L5699 20701
" />
<path d="M5793 20664
L5793 20270
L5943 20270
L5980 20289
L5999 20308
L6017 20345
L6017 20401
L5999 20439
L5980 20458
L5943 20476
L5793 20476
" />
<path d="M6186 20664
L6186 20270
" />
<path d="M6186 20458
L6411 20458
" />
<path d="M6411 20664
L6411 20270
" />
<path d="M6674 20270
L6749 20270
L6786 20289
L6824 20326
L6842 20401
L6842 20533
L6824 20608
L6786 20645
L6749 20664
L6674 20664
L6636 20645
L6599 20608
L6580 20533
L6580 20401
L6599 20326
L6636 20289
L6674 20270
" />
<path d="M6955 20270
L7180 20270
" />
<path d="M7067 20664
L7067 20270
" />
<path d="M7386 20270
L7461 20270
L7499 20289
L7536 20326
L7555 20401
L7555 20533
L7536 20608
L7499 20645
L7461 20664
L7386 20664
L7349 20645
L7311 20608
L7292 20533
L7292 20401
L7311 20326
L7349 20289
L7386 20270
" />
<path d="M23682 20664
L23457 20664
" />
<path d="M23569 20664
L23569 20270
L23532 20326
L23494 20364
L23457 20383
" />
<path d="M24019 20270
L23944 20270
L23907 20289
L23888 20308
L23850 20364
L23832 20439
L23832 20589
L23850 20626
L23869 20645
L23907 20664
L23982 20664
L24019 20645
L24038 20626
L24056 20589
L24056 20495
L24038 20458
L24019 20439
L23982 20420
L23907 20420
L23869 20439
L23850 20458
L23832 20495
" />
<path d="M24225 20664
L24225 20270
" />
<path d="M24263 20514
L24375 20664
" />
<path d="M24375 20401
L24225 20551
" />
</g>
<g style="fill:#C2C200; fill-opacity:0.0; 
stroke:#C2C200; stroke-width:29.5276; stroke-opacity:1; 
stroke-linecap:round; stroke-linejoin:round;">
<path d="M22807 20557
L22754 20482
" />
<path d="M22717 20557
L22717 20399
L22777 20399
L22792 20407
L22799 20414
L22807 20429
L22807 20452
L22799 20467
L22792 20474
L22777 20482
L22717 20482
" />
<path d="M22949 20399
L22874 20399
L22867 20474
L22874 20467
L22889 20459
L22927 20459
L22942 20467
L22949 20474
L22957 20489
L22957 20527
L22949 20542
L22942 20549
L22927 20557
L22889 20557
L22874 20549
L22867 20542
" />
</g>
<g style="fill:#C2C200; fill-opacity:0.0; 
stroke:#C2C200; stroke-width:59.0551; stroke-opacity:1; 
stroke-linecap:round; stroke-linejoin:round;">
<path d="M23438 19483
L23682 19483
L23550 19633
L23607 19633
L23644 19651
L23663 19670
L23682 19708
L23682 19801
L23663 19839
L23644 19858
L23607 19876
L23494 19876
L23457 19858
L23438 19839
" />
<path d="M23813 19483
L24056 19483
L23925 19633
L23982 19633
L24019 19651
L24038 19670
L24056 19708
L24056 19801
L24038 19839
L24019 19858
L23982 19876
L23869 19876
L23832 19858
L23813 19839
" />
<path d="M24225 19876
L24225 19483
" />
<path d="M24263 19726
L24375 19876
" />
<path d="M24375 19614
L24225 19764
" />
</g>
<g style="fill:#C2C200; fill-opacity:0.0; 
stroke:#C2C200; stroke-width:29.5276; stroke-opacity:1; 
stroke-linecap:round; stroke-linejoin:round;">
<path d="M22807 19770
L22754 19695
" />
<path d="M22717 19770
L22717 19612
L22777 19612
L22792 19620
L22799 19627
L22807 19642
L22807 19665
L22799 19680
L22792 19687
L22777 19695
L22717 19695
" />
<path d="M22942 19612
L22912 19612
L22897 19620
L22889 19627
L22874 19650
L22867 19680
L22867 19740
L22874 19755
L22882 19762
L22897 19770
L22927 19770
L22942 19762
L22949 19755
L22957 19740
L22957 19702
L22949 19687
L22942 19680
L22927 19672
L22897 19672
L22882 19680
L22874 19687
L22867 19702
" />
</g>
<g style="fill:#C2C200; fill-opacity:0.0; 
stroke:#C2C200; stroke-width:59.0551; stroke-opacity:1; 
stroke-linecap:round; stroke-linejoin:round;">
<path d="M23682 19089
L23457 19089
" />
<path d="M23569 19089
L23569 18695
L23532 18752
L23494 18789
L23457 18808
" />
<path d="M23925 18695
L23963 18695
L24000 18714
L24019 18733
L24038 18770
L24056 18845
L24056 18939
L24038 19014
L24019 19052
L24000 19070
L23963 19089
L23925 19089
L23888 19070
L23869 19052
L23850 19014
L23832 18939
L23832 18845
L23850 18770
L23869 18733
L23888 18714
L23925 18695
" />
<path d="M24225 19089
L24225 18695
" />
<path d="M24263 18939
L24375 19089
" />
<path d="M24375 18827
L24225 18977
" />
</g>
<g style="fill:#C2C200; fill-opacity:0.0; 
stroke:#C2C200; stroke-width:29.5276; stroke-opacity:1; 
stroke-linecap:round; stroke-linejoin:round;">
<path d="M22807 18982
L22754 18907
" />
<path d="M22717 18982
L22717 18825
L22777 18825
L22792 18832
L22799 18840
L22807 18855
L22807 18877
L22799 18892
L22792 18900
L22777 18907
L22717 18907
" />
<path d="M22859 18825
L22964 18825
L22897 18982
" />
</g>
<g style="fill:#C2C200; fill-opacity:0.0; 
stroke:#C2C200; stroke-width:59.0551; stroke-opacity:1; 
stroke-linecap:round; stroke-linejoin:round;">
<path d="M21917 13321
L21917 12928
L22049 13209
L22180 12928
L22180 13321
" />
<path d="M22367 13321
L22367 12928
" />
<path d="M22780 13284
L22761 13303
L22705 13321
L22667 13321
L22611 13303
L22574 13265
L22555 13228
L22536 13153
L22536 13096
L22555 13021
L22574 12984
L22611 12946
L22667 12928
L22705 12928
L22761 12946
L22780 12965
" />
<path d="M23136 12928
L22949 12928
L22930 13115
L22949 13096
L22986 13078
L23080 13078
L23117 13096
L23136 13115
L23155 13153
L23155 13246
L23136 13284
L23117 13303
L23080 13321
L22986 13321
L22949 13303
L22930 13284
" />
<path d="M23305 12965
L23323 12946
L23361 12928
L23455 12928
L23492 12946
L23511 12965
L23530 13003
L23530 13040
L23511 13096
L23286 13321
L23530 13321
" />
<path d="M23773 12928
L23811 12928
L23848 12946
L23867 12965
L23886 13003
L23905 13078
L23905 13171
L23886 13246
L23867 13284
L23848 13303
L23811 13321
L23773 13321
L23736 13303
L23717 13284
L23698 13246
L23680 13171
L23680 13078
L23698 13003
L23717 12965
L23736 12946
L23773 12928
" />
<path d="M24036 12928
L24280 12928
L24148 13078
L24205 13078
L24242 13096
L24261 13115
L24280 13153
L24280 13246
L24261 13284
L24242 13303
L24205 13321
L24092 13321
L24055 13303
L24036 13284
" />
</g>
<g style="fill:#C2C200; fill-opacity:0.0; 
stroke:#C2C200; stroke-width:29.5276; stroke-opacity:1; 
stroke-linecap:round; stroke-linejoin:round;">
<path d="M22981 12151
L23141 12151
L23159 12142
L23169 12133
L23178 12114
L23178 12076
L23169 12058
L23159 12048
L23141 12039
L22981 12039
" />
<path d="M22981 11964
L22981 11842
L23056 11908
L23056 11880
L23066 11861
L23075 11851
L23094 11842
L23141 11842
L23159 11851
L23169 11861
L23178 11880
L23178 11936
L23169 11955
L23159 11964
" />
</g>
<g style="fill:#000000; fill-opacity:0.0; 
stroke:#000000; stroke-width:29.5276; stroke-opacity:1; 
stroke-linecap:round; stroke-linejoin:round;">
</g>
<g style="fill:#C2C200; fill-opacity:0.0; 
stroke:#C2C200; stroke-width:29.5276; stroke-opacity:1; 
stroke-linecap:round; stroke-linejoin:round;">
</g>
<g style="fill:#C2C200; fill-opacity:0.0; 
stroke:#C2C200; stroke-width:59.0551; stroke-opacity:1; 
stroke-linecap:round; stroke-linejoin:round;">
<path d="M688 4935
L688 23045
" />
<path d="M28640 23045
L688 23045
" />
<path d="M28640 4935
L28640 23045
" />
<path d="M688 4935
L28640 4935
" />
</g> 
</svg>
