G04 #@! TF.FileFunction,Copper,L1,Top,Signal*
%FSLAX46Y46*%
G04 Gerber Fmt 4.6, Leading zero omitted, Abs format (unit mm)*
G04 Created by KiCad (PCBNEW 4.0.7-e2-6376~61~ubuntu18.04.1) date Sat Jul 21 17:42:36 2018*
%MOMM*%
%LPD*%
G01*
G04 APERTURE LIST*
%ADD10C,0.100000*%
%ADD11R,1.000000X1.250000*%
%ADD12R,0.800000X0.750000*%
%ADD13R,0.900000X1.200000*%
%ADD14R,2.250000X3.200000*%
%ADD15C,3.400000*%
%ADD16R,1.700000X1.700000*%
%ADD17O,1.700000X1.700000*%
%ADD18O,5.930000X1.970000*%
%ADD19C,1.900000*%
%ADD20R,1.350000X0.450000*%
%ADD21C,1.408000*%
%ADD22C,1.800000*%
%ADD23R,1.550000X1.500000*%
%ADD24R,0.900000X0.500000*%
%ADD25C,1.300000*%
%ADD26R,0.500000X0.900000*%
%ADD27R,0.998220X0.899160*%
%ADD28C,1.500000*%
%ADD29R,1.270000X0.558800*%
%ADD30R,0.558800X1.270000*%
%ADD31R,1.651000X0.998220*%
%ADD32R,1.060000X0.650000*%
%ADD33R,0.450000X0.300000*%
%ADD34R,0.750000X0.300000*%
%ADD35R,1.000000X0.950000*%
%ADD36C,0.300000*%
%ADD37C,0.600000*%
%ADD38C,0.500000*%
%ADD39C,3.000000*%
%ADD40C,2.000000*%
%ADD41C,0.250000*%
%ADD42C,6.000000*%
G04 APERTURE END LIST*
D10*
D11*
X122000000Y-89500000D03*
X124000000Y-89500000D03*
D12*
X123750000Y-92000000D03*
X122250000Y-92000000D03*
X123750000Y-94000000D03*
X122250000Y-94000000D03*
D13*
X122350000Y-78000000D03*
X125650000Y-78000000D03*
D14*
X83550000Y-92000000D03*
X90450000Y-92000000D03*
D15*
X99000000Y-76360000D03*
X99000000Y-80420000D03*
X99000000Y-71280000D03*
X99000000Y-85500000D03*
D16*
X70000000Y-88960000D03*
D17*
X70000000Y-91500000D03*
X70000000Y-94040000D03*
X70000000Y-96580000D03*
D18*
X107660000Y-85240000D03*
X115560000Y-85240000D03*
D19*
X104220000Y-67000000D03*
X119000000Y-67000000D03*
D18*
X83440000Y-85240000D03*
X91340000Y-85240000D03*
D19*
X80000000Y-67000000D03*
X94780000Y-67000000D03*
D20*
X133825000Y-86400000D03*
X133825000Y-85750000D03*
X133825000Y-85100000D03*
X133825000Y-84450000D03*
X133825000Y-83800000D03*
D21*
X133800000Y-87600000D03*
X133800000Y-82600000D03*
D22*
X136500000Y-88600000D03*
X136500000Y-81600000D03*
D23*
X136500000Y-86100000D03*
X136500000Y-84100000D03*
X136500000Y-88150000D03*
X136500000Y-82050000D03*
D24*
X100500000Y-97571429D03*
X100500000Y-99071429D03*
X98500000Y-97500000D03*
X98500000Y-99000000D03*
X96500000Y-99000000D03*
X96500000Y-97500000D03*
D25*
X79600000Y-106000000D03*
X83000000Y-106000000D03*
D26*
X122500000Y-104500000D03*
X124000000Y-104500000D03*
X124000000Y-102500000D03*
X122500000Y-102500000D03*
X122500000Y-100500000D03*
X124000000Y-100500000D03*
D27*
X134404880Y-93900440D03*
X134404880Y-98000000D03*
X136000000Y-98000000D03*
X136000000Y-93900440D03*
D28*
X90500000Y-106000000D03*
X92500000Y-106000000D03*
X88500000Y-106000000D03*
D29*
X108207400Y-100200920D03*
X108207400Y-101001020D03*
X108207400Y-101801120D03*
X108207400Y-102601220D03*
X108207400Y-103398780D03*
X108207400Y-104198880D03*
X108207400Y-104998980D03*
X108207400Y-105799080D03*
D30*
X109700920Y-107292600D03*
X110501020Y-107292600D03*
X111301120Y-107292600D03*
X112101220Y-107292600D03*
X112898780Y-107292600D03*
X113698880Y-107292600D03*
X114498980Y-107292600D03*
X115299080Y-107292600D03*
D29*
X116792600Y-105799080D03*
X116792600Y-104998980D03*
X116792600Y-104198880D03*
X116792600Y-103398780D03*
X116792600Y-102601220D03*
X116792600Y-101801120D03*
X116792600Y-101001020D03*
X116792600Y-100200920D03*
D30*
X115299080Y-98707400D03*
X114498980Y-98707400D03*
X113698880Y-98707400D03*
X112898780Y-98707400D03*
X112101220Y-98707400D03*
X111301120Y-98707400D03*
X110501020Y-98707400D03*
X109700920Y-98707400D03*
D31*
X98424440Y-104402340D03*
X98424440Y-107597660D03*
X103575560Y-107597660D03*
X103575560Y-104402340D03*
D32*
X122800000Y-82000000D03*
X122800000Y-82950000D03*
X122800000Y-83900000D03*
X125000000Y-83900000D03*
X125000000Y-82000000D03*
D33*
X93525000Y-91350000D03*
X93525000Y-92000000D03*
X93525000Y-92650000D03*
X95475000Y-92650000D03*
X95475000Y-92000000D03*
X95475000Y-91350000D03*
D34*
X94595000Y-92650000D03*
D35*
X94500000Y-91675000D03*
D36*
X94500000Y-91675000D03*
D35*
X94500000Y-91675000D03*
D37*
X125000000Y-102500000D03*
X122250000Y-92000000D03*
X122800000Y-88700000D03*
X122800000Y-83900000D03*
X121000000Y-78000000D03*
X124000000Y-100500000D03*
X124000000Y-104500000D03*
X98500000Y-99000000D03*
X112898780Y-98707400D03*
X103575560Y-107597660D03*
X110501020Y-107292600D03*
X131400000Y-82950000D03*
X134404880Y-93900440D03*
X134000000Y-89500000D03*
X126500000Y-89500000D03*
X126500000Y-82950000D03*
X102000000Y-95500000D03*
X101500000Y-104000000D03*
X79500000Y-89000000D03*
X111000000Y-105500000D03*
X111301120Y-98707400D03*
X111500000Y-95000000D03*
X127500000Y-95500000D03*
X127500000Y-82000000D03*
X132500000Y-78000000D03*
X133000000Y-86500000D03*
X109500000Y-96500000D03*
X109700920Y-98707400D03*
X119500000Y-101000000D03*
X120000000Y-86000000D03*
X118874990Y-100000000D03*
X119500000Y-85000000D03*
X98500000Y-95500000D03*
X98500000Y-97500000D03*
X100500000Y-109000000D03*
X100500000Y-99071429D03*
X90500000Y-99000000D03*
X105500000Y-103500000D03*
X105500000Y-100000000D03*
X96500000Y-100000000D03*
X96500000Y-97500000D03*
X107002545Y-101976210D03*
X84000000Y-102500000D03*
X107000000Y-110000000D03*
X106500000Y-103000000D03*
X106374990Y-109434306D03*
X121500000Y-109374990D03*
X121500000Y-102500000D03*
D38*
X125000000Y-102500000D02*
X124000000Y-102500000D01*
X122000000Y-89500000D02*
X122000000Y-91750000D01*
X122000000Y-91750000D02*
X122250000Y-92000000D01*
X122800000Y-88700000D02*
X122000000Y-89500000D01*
X122800000Y-83900000D02*
X122084998Y-83900000D01*
X122084998Y-83900000D02*
X121819999Y-83635001D01*
X121819999Y-83635001D02*
X121819999Y-82264999D01*
X121819999Y-82264999D02*
X122084998Y-82000000D01*
X122084998Y-82000000D02*
X122800000Y-82000000D01*
X122350000Y-78000000D02*
X122350000Y-81550000D01*
X122350000Y-81550000D02*
X122800000Y-82000000D01*
X122350000Y-78000000D02*
X121000000Y-78000000D01*
D39*
X96500000Y-80420000D02*
X92500000Y-80420000D01*
X92500000Y-80420000D02*
X88260000Y-80420000D01*
D40*
X99000000Y-85500000D02*
X93920000Y-80420000D01*
X93920000Y-80420000D02*
X92500000Y-80420000D01*
D39*
X99000000Y-80420000D02*
X96500000Y-80420000D01*
D40*
X99000000Y-85500000D02*
X97300001Y-83800001D01*
X97300001Y-83800001D02*
X97300001Y-81220001D01*
X97300001Y-81220001D02*
X96500000Y-80420000D01*
X99000000Y-85500000D02*
X99000000Y-80420000D01*
D39*
X83550000Y-92000000D02*
X83550000Y-85350000D01*
X83550000Y-85350000D02*
X83440000Y-85240000D01*
X88260000Y-80420000D02*
X83440000Y-85240000D01*
D41*
X95475000Y-92650000D02*
X95950000Y-92650000D01*
X95950000Y-92650000D02*
X96800000Y-93500000D01*
X96800000Y-93500000D02*
X97000000Y-93500000D01*
D39*
X111242268Y-92500000D02*
X98000000Y-92500000D01*
X115560000Y-88182268D02*
X111242268Y-92500000D01*
X115560000Y-85240000D02*
X115560000Y-88182268D01*
D41*
X126500000Y-89500000D02*
X134000000Y-89500000D01*
D38*
X126500000Y-89500000D02*
X124000000Y-89500000D01*
X131400000Y-82950000D02*
X128000000Y-82950000D01*
X126500000Y-82950000D02*
X123580000Y-82950000D01*
X128000000Y-82950000D02*
X126500000Y-82950000D01*
X123750000Y-92000000D02*
X123750000Y-94000000D01*
X124000000Y-89500000D02*
X124000000Y-91750000D01*
X124000000Y-91750000D02*
X123750000Y-92000000D01*
D41*
X133825000Y-84450000D02*
X132900000Y-84450000D01*
X132900000Y-84450000D02*
X131400000Y-82950000D01*
D38*
X123580000Y-82950000D02*
X122800000Y-82950000D01*
D40*
X97000000Y-93500000D02*
X95000000Y-93500000D01*
X98000000Y-92500000D02*
X97000000Y-93500000D01*
D38*
X95500000Y-93000000D02*
X96500000Y-93000000D01*
X96000000Y-93000000D02*
X95500000Y-93000000D01*
X95650000Y-92650000D02*
X96000000Y-93000000D01*
X95475000Y-92650000D02*
X95650000Y-92650000D01*
X94595000Y-92650000D02*
X97850000Y-92650000D01*
X97850000Y-92650000D02*
X98000000Y-92500000D01*
X102000000Y-95500000D02*
X111000000Y-95500000D01*
X111000000Y-95500000D02*
X111500000Y-95000000D01*
X98424440Y-104402340D02*
X101097660Y-104402340D01*
X101097660Y-104402340D02*
X101500000Y-104000000D01*
X88500000Y-106000000D02*
X90097660Y-104402340D01*
X90097660Y-104402340D02*
X98424440Y-104402340D01*
X79600000Y-106000000D02*
X80800001Y-107200001D01*
X80800001Y-107200001D02*
X87299999Y-107200001D01*
X87299999Y-107200001D02*
X87750001Y-106749999D01*
X87750001Y-106749999D02*
X88500000Y-106000000D01*
X79500000Y-89000000D02*
X70040000Y-89000000D01*
X70040000Y-89000000D02*
X70000000Y-88960000D01*
X111000000Y-105500000D02*
X110358520Y-105500000D01*
X110358520Y-105500000D02*
X109700920Y-106157600D01*
X109700920Y-106157600D02*
X109700920Y-107292600D01*
X122250000Y-94000000D02*
X112500000Y-94000000D01*
X112500000Y-94000000D02*
X111500000Y-95000000D01*
X127500000Y-95500000D02*
X122875000Y-95500000D01*
X122875000Y-95500000D02*
X122250000Y-94875000D01*
X122250000Y-94875000D02*
X122250000Y-94000000D01*
X125000000Y-82000000D02*
X127500000Y-82000000D01*
X132500000Y-78000000D02*
X125650000Y-78000000D01*
D41*
X133825000Y-86400000D02*
X133100000Y-86400000D01*
X133100000Y-86400000D02*
X133000000Y-86500000D01*
X95475000Y-91350000D02*
X95475000Y-92000000D01*
X93525000Y-92000000D02*
X93525000Y-90899998D01*
X93525000Y-90899998D02*
X93624999Y-90799999D01*
X93525000Y-91350000D02*
X93525000Y-90899998D01*
X95475000Y-91350000D02*
X94465000Y-91350000D01*
X94465000Y-91350000D02*
X94115000Y-91000000D01*
X94500000Y-91675000D02*
X93624999Y-90799999D01*
D40*
X94115000Y-91000000D02*
X95000000Y-91000000D01*
X91340000Y-85240000D02*
X91340000Y-88225000D01*
X91340000Y-88225000D02*
X94115000Y-91000000D01*
X92914999Y-90799999D02*
X93624999Y-90799999D01*
X93624999Y-90799999D02*
X94024990Y-91199990D01*
D39*
X91340000Y-89225000D02*
X92914999Y-90799999D01*
X91340000Y-85240000D02*
X91340000Y-89225000D01*
X90450000Y-92000000D02*
X90450000Y-86130000D01*
X90450000Y-86130000D02*
X91340000Y-85240000D01*
D40*
X99000000Y-76360000D02*
X99000000Y-71280000D01*
D42*
X107660000Y-85240000D02*
X107660000Y-79940000D01*
X107660000Y-79940000D02*
X99000000Y-71280000D01*
D41*
X77000000Y-96500000D02*
X72000000Y-91500000D01*
X72000000Y-91500000D02*
X70000000Y-91500000D01*
X109500000Y-96500000D02*
X77000000Y-96500000D01*
X110501020Y-98707400D02*
X110501020Y-97822400D01*
X110501020Y-97822400D02*
X110426019Y-97747399D01*
X110426019Y-97747399D02*
X101609032Y-97747399D01*
X101609032Y-97747399D02*
X101210001Y-98146430D01*
X101210001Y-98146430D02*
X74106430Y-98146430D01*
X74106430Y-98146430D02*
X70849999Y-94889999D01*
X70849999Y-94889999D02*
X70000000Y-94040000D01*
X119500000Y-101000000D02*
X116793620Y-101000000D01*
X116793620Y-101000000D02*
X116792600Y-101001020D01*
X133825000Y-85750000D02*
X120250000Y-85750000D01*
X120250000Y-85750000D02*
X120000000Y-86000000D01*
X118674070Y-100200920D02*
X118874990Y-100000000D01*
X116792600Y-100200920D02*
X118674070Y-100200920D01*
X133825000Y-85100000D02*
X119600000Y-85100000D01*
X119600000Y-85100000D02*
X119500000Y-85000000D01*
X98500000Y-95500000D02*
X95126153Y-95500000D01*
X95126153Y-95500000D02*
X93674990Y-94048837D01*
X93674990Y-94048837D02*
X93674990Y-92799991D01*
X93674990Y-92799991D02*
X93525000Y-92650000D01*
X100500000Y-97571429D02*
X98571429Y-97571429D01*
X98571429Y-97571429D02*
X98500000Y-97500000D01*
X100500000Y-109000000D02*
X105884294Y-109000000D01*
X105884294Y-109000000D02*
X106631693Y-108252601D01*
X106631693Y-108252601D02*
X111040421Y-108252601D01*
X111040421Y-108252601D02*
X111105421Y-108187601D01*
X111105421Y-108187601D02*
X111105421Y-107488299D01*
X111105421Y-107488299D02*
X111301120Y-107292600D01*
X90500000Y-99000000D02*
X96500000Y-99000000D01*
X107322400Y-103398780D02*
X108207400Y-103398780D01*
X106921181Y-103799999D02*
X107322400Y-103398780D01*
X105799999Y-103799999D02*
X106921181Y-103799999D01*
X105500000Y-103500000D02*
X105799999Y-103799999D01*
X96500000Y-100000000D02*
X105500000Y-100000000D01*
X107177635Y-101801120D02*
X107002545Y-101976210D01*
D38*
X106578281Y-101976210D02*
X107002545Y-101976210D01*
X84523790Y-101976210D02*
X106578281Y-101976210D01*
X84000000Y-102500000D02*
X84523790Y-101976210D01*
D41*
X108207400Y-101801120D02*
X107177635Y-101801120D01*
X122500000Y-110000000D02*
X107000000Y-110000000D01*
X122500000Y-109500000D02*
X122500000Y-110000000D01*
X122500000Y-104500000D02*
X122500000Y-109500000D01*
X106898780Y-102601220D02*
X108207400Y-102601220D01*
X106500000Y-103000000D02*
X106898780Y-102601220D01*
X106434306Y-109374990D02*
X106374990Y-109434306D01*
X121500000Y-109374990D02*
X106434306Y-109374990D01*
X122500000Y-102500000D02*
X121500000Y-102500000D01*
X122500000Y-100500000D02*
X122500000Y-102500000D01*
X134404880Y-98000000D02*
X133655770Y-98000000D01*
X133655770Y-98000000D02*
X133403169Y-97747399D01*
X133403169Y-97747399D02*
X114573981Y-97747399D01*
X114573981Y-97747399D02*
X114498980Y-97822400D01*
X114498980Y-97822400D02*
X114498980Y-98707400D01*
X103575560Y-104402340D02*
X104651060Y-104402340D01*
X104651060Y-104402340D02*
X106047800Y-105799080D01*
X106047800Y-105799080D02*
X107322400Y-105799080D01*
X107322400Y-105799080D02*
X108207400Y-105799080D01*
M02*
