M48
;DRILL file {KiCad 4.0.7-e2-6376~61~ubuntu18.04.1} date Sat Jul 21 17:42:47 2018
;FORMAT={-:-/ absolute / inch / decimal}
FMAT,2
INCH,TZ
T1C0.012
T2C0.016
T3C0.024
T4C0.031
T5C0.035
T6C0.039
T7C0.047
T8C0.050
T9C0.100
%
G90
G05
M72
T1
X3.7205Y-3.6093
T2
X3.1299Y-3.5039
X3.3071Y-4.0354
X3.563Y-3.8976
X3.7992Y-3.8386
X3.7992Y-3.937
X3.878Y-3.7598
X3.878Y-3.8386
X3.878Y-3.8976
X3.9567Y-3.9004
X3.9567Y-4.2913
X3.9961Y-4.0945
X4.0157Y-3.7598
X4.0778Y-4.2361
X4.1535Y-3.937
X4.1535Y-4.0748
X4.188Y-4.3084
X4.1929Y-4.0551
X4.2126Y-4.3307
X4.2127Y-4.0148
X4.311Y-3.7992
X4.3189Y-3.8861
X4.3504Y-4.2241
X4.3701Y-4.1535
X4.3819Y-3.8861
X4.3898Y-3.7402
X4.4448Y-3.8861
X4.6801Y-3.937
X4.7047Y-3.3465
X4.7047Y-3.9764
X4.7244Y-3.3858
X4.7638Y-3.0709
X4.7835Y-4.0354
X4.7835Y-4.3061
X4.813Y-3.622
X4.8346Y-3.3031
X4.8346Y-3.4921
X4.8819Y-3.9567
X4.8819Y-4.1142
X4.9213Y-4.0354
X4.9803Y-3.2657
X4.9803Y-3.5236
X5.0197Y-3.2283
X5.0197Y-3.7598
X5.1732Y-3.2657
X5.2165Y-3.0709
X5.2362Y-3.4055
X5.2756Y-3.5236
X5.2915Y-3.6969
T3
X3.1339Y-4.1732
X3.2677Y-4.1732
T4
X3.4843Y-4.1732
X3.563Y-4.1732
X3.6417Y-4.1732
T5
X5.2677Y-3.252
X5.2677Y-3.4488
T6
X2.7559Y-3.5024
X2.7559Y-3.6024
X2.7559Y-3.7024
X2.7559Y-3.8024
T7
X3.1496Y-2.6378
X3.7315Y-2.6378
X4.1031Y-2.6378
X4.685Y-2.6378
X5.374Y-3.2126
X5.374Y-3.4882
T9
X3.8976Y-2.8063
X3.8976Y-3.0063
X3.8976Y-3.1661
X3.8976Y-3.3661
T8
X3.2071Y-3.3559G85X3.363Y-3.3559
G05
X3.5181Y-3.3559G85X3.674Y-3.3559
G05
X4.1606Y-3.3559G85X4.3165Y-3.3559
G05
X4.4717Y-3.3559G85X4.6276Y-3.3559
G05
T0
M30
