G04 #@! TF.FileFunction,Other,User*
%FSLAX46Y46*%
G04 Gerber Fmt 4.6, Leading zero omitted, Abs format (unit mm)*
G04 Created by KiCad (PCBNEW 4.0.7-e2-6376~61~ubuntu18.04.1) date Sat Jul 21 17:42:36 2018*
%MOMM*%
%LPD*%
G01*
G04 APERTURE LIST*
%ADD10C,0.100000*%
%ADD11C,0.050000*%
%ADD12C,0.150000*%
G04 APERTURE END LIST*
D10*
D11*
X121250000Y-88620000D02*
X124750000Y-88620000D01*
X121250000Y-88620000D02*
X121250000Y-90370000D01*
X124750000Y-90370000D02*
X124750000Y-88620000D01*
X124750000Y-90370000D02*
X121250000Y-90370000D01*
X124400000Y-92650000D02*
X121600000Y-92650000D01*
X124400000Y-92650000D02*
X124400000Y-91350000D01*
X121600000Y-91350000D02*
X121600000Y-92650000D01*
X121600000Y-91350000D02*
X124400000Y-91350000D01*
X124400000Y-94650000D02*
X121600000Y-94650000D01*
X124400000Y-94650000D02*
X124400000Y-93350000D01*
X121600000Y-93350000D02*
X121600000Y-94650000D01*
X121600000Y-93350000D02*
X124400000Y-93350000D01*
X121650000Y-76850000D02*
X126350000Y-76850000D01*
X126350000Y-76850000D02*
X126350000Y-79150000D01*
X126350000Y-79150000D02*
X121650000Y-79150000D01*
X121650000Y-76850000D02*
X121650000Y-79150000D01*
D12*
X77000000Y-105500000D02*
G75*
G03X77000000Y-105500000I-4500000J0D01*
G01*
X77000000Y-70500000D02*
G75*
G03X77000000Y-70500000I-4500000J0D01*
G01*
X137000000Y-70500000D02*
G75*
G03X137000000Y-70500000I-4500000J0D01*
G01*
X137000000Y-105500000D02*
G75*
G03X137000000Y-105500000I-4500000J0D01*
G01*
D11*
X68200000Y-87160000D02*
X68200000Y-98360000D01*
X68200000Y-98360000D02*
X71800000Y-98360000D01*
X71800000Y-98360000D02*
X71800000Y-87160000D01*
X71800000Y-87160000D02*
X68200000Y-87160000D01*
X101200000Y-97071429D02*
X101200000Y-99571429D01*
X101200000Y-97071429D02*
X99800000Y-97071429D01*
X99800000Y-99571429D02*
X101200000Y-99571429D01*
X99800000Y-99571429D02*
X99800000Y-97071429D01*
X99200000Y-97000000D02*
X99200000Y-99500000D01*
X99200000Y-97000000D02*
X97800000Y-97000000D01*
X97800000Y-99500000D02*
X99200000Y-99500000D01*
X97800000Y-99500000D02*
X97800000Y-97000000D01*
X95800000Y-99500000D02*
X95800000Y-97000000D01*
X95800000Y-99500000D02*
X97200000Y-99500000D01*
X97200000Y-97000000D02*
X95800000Y-97000000D01*
X97200000Y-97000000D02*
X97200000Y-99500000D01*
X122000000Y-103800000D02*
X124500000Y-103800000D01*
X122000000Y-103800000D02*
X122000000Y-105200000D01*
X124500000Y-105200000D02*
X124500000Y-103800000D01*
X124500000Y-105200000D02*
X122000000Y-105200000D01*
X124500000Y-103200000D02*
X122000000Y-103200000D01*
X124500000Y-103200000D02*
X124500000Y-101800000D01*
X122000000Y-101800000D02*
X122000000Y-103200000D01*
X122000000Y-101800000D02*
X124500000Y-101800000D01*
X122000000Y-99800000D02*
X124500000Y-99800000D01*
X122000000Y-99800000D02*
X122000000Y-101200000D01*
X124500000Y-101200000D02*
X124500000Y-99800000D01*
X124500000Y-101200000D02*
X122000000Y-101200000D01*
X122000000Y-81150000D02*
X125800000Y-81150000D01*
X125800000Y-81150000D02*
X125800000Y-84750000D01*
X125800000Y-84750000D02*
X122000000Y-84750000D01*
X122000000Y-84750000D02*
X122000000Y-81150000D01*
M02*
