G04 #@! TF.FileFunction,Paste,Top*
%FSLAX46Y46*%
G04 Gerber Fmt 4.6, Leading zero omitted, Abs format (unit mm)*
G04 Created by KiCad (PCBNEW 4.0.7-e2-6376~61~ubuntu18.04.1) date Sat Jul 21 17:42:36 2018*
%MOMM*%
%LPD*%
G01*
G04 APERTURE LIST*
%ADD10C,0.100000*%
%ADD11R,1.000000X1.250000*%
%ADD12R,0.800000X0.750000*%
%ADD13R,0.900000X1.200000*%
%ADD14R,2.250000X3.200000*%
%ADD15R,1.350000X0.450000*%
%ADD16R,1.550000X1.500000*%
%ADD17R,0.900000X0.500000*%
%ADD18R,0.500000X0.900000*%
%ADD19R,0.998220X0.899160*%
%ADD20R,1.270000X0.558800*%
%ADD21R,0.558800X1.270000*%
%ADD22R,1.651000X0.998220*%
%ADD23R,1.060000X0.650000*%
%ADD24R,0.450000X0.300000*%
%ADD25R,0.750000X0.300000*%
%ADD26R,1.000000X0.950000*%
G04 APERTURE END LIST*
D10*
G36*
X94049084Y-91245000D02*
X94950000Y-91245000D01*
X94950000Y-92105214D01*
X94049084Y-92105214D01*
X94049084Y-91245000D01*
G37*
G36*
X94244338Y-92500000D02*
X94945000Y-92500000D01*
X94945000Y-92802077D01*
X94244338Y-92802077D01*
X94244338Y-92500000D01*
G37*
D11*
X122000000Y-89500000D03*
X124000000Y-89500000D03*
D12*
X123750000Y-92000000D03*
X122250000Y-92000000D03*
X123750000Y-94000000D03*
X122250000Y-94000000D03*
D13*
X122350000Y-78000000D03*
X125650000Y-78000000D03*
D14*
X83550000Y-92000000D03*
X90450000Y-92000000D03*
D15*
X133825000Y-86400000D03*
X133825000Y-85750000D03*
X133825000Y-85100000D03*
X133825000Y-84450000D03*
X133825000Y-83800000D03*
D16*
X136500000Y-86100000D03*
X136500000Y-84100000D03*
X136500000Y-88150000D03*
X136500000Y-82050000D03*
D17*
X100500000Y-97571429D03*
X100500000Y-99071429D03*
X98500000Y-97500000D03*
X98500000Y-99000000D03*
X96500000Y-99000000D03*
X96500000Y-97500000D03*
D18*
X122500000Y-104500000D03*
X124000000Y-104500000D03*
X124000000Y-102500000D03*
X122500000Y-102500000D03*
X122500000Y-100500000D03*
X124000000Y-100500000D03*
D19*
X134404880Y-93900440D03*
X134404880Y-98000000D03*
X136000000Y-98000000D03*
X136000000Y-93900440D03*
D20*
X108207400Y-100200920D03*
X108207400Y-101001020D03*
X108207400Y-101801120D03*
X108207400Y-102601220D03*
X108207400Y-103398780D03*
X108207400Y-104198880D03*
X108207400Y-104998980D03*
X108207400Y-105799080D03*
D21*
X109700920Y-107292600D03*
X110501020Y-107292600D03*
X111301120Y-107292600D03*
X112101220Y-107292600D03*
X112898780Y-107292600D03*
X113698880Y-107292600D03*
X114498980Y-107292600D03*
X115299080Y-107292600D03*
D20*
X116792600Y-105799080D03*
X116792600Y-104998980D03*
X116792600Y-104198880D03*
X116792600Y-103398780D03*
X116792600Y-102601220D03*
X116792600Y-101801120D03*
X116792600Y-101001020D03*
X116792600Y-100200920D03*
D21*
X115299080Y-98707400D03*
X114498980Y-98707400D03*
X113698880Y-98707400D03*
X112898780Y-98707400D03*
X112101220Y-98707400D03*
X111301120Y-98707400D03*
X110501020Y-98707400D03*
X109700920Y-98707400D03*
D22*
X98424440Y-104402340D03*
X98424440Y-107597660D03*
X103575560Y-107597660D03*
X103575560Y-104402340D03*
D23*
X122800000Y-82000000D03*
X122800000Y-82950000D03*
X122800000Y-83900000D03*
X125000000Y-83900000D03*
X125000000Y-82000000D03*
D24*
X93525000Y-91350000D03*
X93525000Y-92000000D03*
X93525000Y-92650000D03*
X95475000Y-92650000D03*
X95475000Y-92000000D03*
X95475000Y-91350000D03*
D25*
X94595000Y-92650000D03*
D26*
X94500000Y-91675000D03*
X94500000Y-91675000D03*
M02*
