G04 #@! TF.FileFunction,Soldermask,Top*
%FSLAX46Y46*%
G04 Gerber Fmt 4.6, Leading zero omitted, Abs format (unit mm)*
G04 Created by KiCad (PCBNEW 4.0.7-e2-6376~61~ubuntu18.04.1) date Sat Jul 21 17:42:36 2018*
%MOMM*%
%LPD*%
G01*
G04 APERTURE LIST*
%ADD10C,0.100000*%
%ADD11R,1.400000X1.650000*%
%ADD12R,1.200000X1.150000*%
%ADD13R,1.300000X1.600000*%
%ADD14R,2.650000X3.600000*%
%ADD15C,3.800000*%
%ADD16C,4.900000*%
%ADD17R,2.100000X2.100000*%
%ADD18O,2.100000X2.100000*%
%ADD19O,6.330000X2.370000*%
%ADD20C,2.300000*%
%ADD21R,1.750000X0.850000*%
%ADD22C,1.808000*%
%ADD23C,2.200000*%
%ADD24R,1.950000X1.900000*%
%ADD25R,1.300000X0.900000*%
%ADD26C,1.700000*%
%ADD27R,0.900000X1.300000*%
%ADD28R,1.201420X1.102360*%
%ADD29C,1.900000*%
%ADD30R,1.670000X0.958800*%
%ADD31R,0.958800X1.670000*%
%ADD32R,2.051000X1.398220*%
%ADD33R,1.460000X1.050000*%
%ADD34R,0.850000X0.700000*%
%ADD35R,1.150000X0.700000*%
%ADD36R,1.400000X1.350000*%
G04 APERTURE END LIST*
D10*
D11*
X122000000Y-89500000D03*
X124000000Y-89500000D03*
D12*
X123750000Y-92000000D03*
X122250000Y-92000000D03*
X123750000Y-94000000D03*
X122250000Y-94000000D03*
D13*
X122350000Y-78000000D03*
X125650000Y-78000000D03*
D14*
X83550000Y-92000000D03*
X90450000Y-92000000D03*
D15*
X99000000Y-76360000D03*
X99000000Y-80420000D03*
X99000000Y-71280000D03*
X99000000Y-85500000D03*
D16*
X72500000Y-105500000D03*
X72500000Y-70500000D03*
X132500000Y-70500000D03*
X132500000Y-105500000D03*
D17*
X70000000Y-88960000D03*
D18*
X70000000Y-91500000D03*
X70000000Y-94040000D03*
X70000000Y-96580000D03*
D19*
X107660000Y-85240000D03*
X115560000Y-85240000D03*
D20*
X104220000Y-67000000D03*
X119000000Y-67000000D03*
D19*
X83440000Y-85240000D03*
X91340000Y-85240000D03*
D20*
X80000000Y-67000000D03*
X94780000Y-67000000D03*
D21*
X133825000Y-86400000D03*
X133825000Y-85750000D03*
X133825000Y-85100000D03*
X133825000Y-84450000D03*
X133825000Y-83800000D03*
D22*
X133800000Y-87600000D03*
X133800000Y-82600000D03*
D23*
X136500000Y-88600000D03*
X136500000Y-81600000D03*
D24*
X136500000Y-86100000D03*
X136500000Y-84100000D03*
X136500000Y-88150000D03*
X136500000Y-82050000D03*
D25*
X100500000Y-97571429D03*
X100500000Y-99071429D03*
X98500000Y-97500000D03*
X98500000Y-99000000D03*
X96500000Y-99000000D03*
X96500000Y-97500000D03*
D26*
X79600000Y-106000000D03*
X83000000Y-106000000D03*
D27*
X122500000Y-104500000D03*
X124000000Y-104500000D03*
X124000000Y-102500000D03*
X122500000Y-102500000D03*
X122500000Y-100500000D03*
X124000000Y-100500000D03*
D28*
X134404880Y-93900440D03*
X134404880Y-98000000D03*
X136000000Y-98000000D03*
X136000000Y-93900440D03*
D29*
X90500000Y-106000000D03*
X92500000Y-106000000D03*
X88500000Y-106000000D03*
X86400000Y-106000000D03*
X94600000Y-106000000D03*
D30*
X108207400Y-100200920D03*
X108207400Y-101001020D03*
X108207400Y-101801120D03*
X108207400Y-102601220D03*
X108207400Y-103398780D03*
X108207400Y-104198880D03*
X108207400Y-104998980D03*
X108207400Y-105799080D03*
D31*
X109700920Y-107292600D03*
X110501020Y-107292600D03*
X111301120Y-107292600D03*
X112101220Y-107292600D03*
X112898780Y-107292600D03*
X113698880Y-107292600D03*
X114498980Y-107292600D03*
X115299080Y-107292600D03*
D30*
X116792600Y-105799080D03*
X116792600Y-104998980D03*
X116792600Y-104198880D03*
X116792600Y-103398780D03*
X116792600Y-102601220D03*
X116792600Y-101801120D03*
X116792600Y-101001020D03*
X116792600Y-100200920D03*
D31*
X115299080Y-98707400D03*
X114498980Y-98707400D03*
X113698880Y-98707400D03*
X112898780Y-98707400D03*
X112101220Y-98707400D03*
X111301120Y-98707400D03*
X110501020Y-98707400D03*
X109700920Y-98707400D03*
D32*
X98424440Y-104402340D03*
X98424440Y-107597660D03*
X103575560Y-107597660D03*
X103575560Y-104402340D03*
D33*
X122800000Y-82000000D03*
X122800000Y-82950000D03*
X122800000Y-83900000D03*
X125000000Y-83900000D03*
X125000000Y-82000000D03*
D34*
X93525000Y-91350000D03*
X93525000Y-92000000D03*
X93525000Y-92650000D03*
X95475000Y-92650000D03*
X95475000Y-92000000D03*
X95475000Y-91350000D03*
D35*
X94595000Y-92650000D03*
D36*
X94500000Y-91675000D03*
X94500000Y-91675000D03*
M02*
